<svg height='350px' width='350px'  fill="#000000" xmlns="http://www.w3.org/2000/svg" viewBox="0 0 64 64" x="0px" y="0px"><title>10-freedom</title><g data-name="10-freedom"><path d="M16,10a3,3,0,1,0-3-3A3.00328,3.00328,0,0,0,16,10Zm0-4a1,1,0,1,1-1,1A1.001,1.001,0,0,1,16,6Z"></path><path d="M10,8.03516A1.03034,1.03034,0,0,0,11,7a4.96544,4.96544,0,0,1,.95117-2.93408A1.00022,1.00022,0,0,0,10.332,2.89111,6.95594,6.95594,0,0,0,9,7v.06982A.97075.97075,0,0,0,10,8.03516Z"></path><path d="M21,7.00586A.99976.99976,0,0,0,22,8h.00586A1.00007,1.00007,0,0,0,23,6.99414a6.94951,6.94951,0,0,0-1.35645-4.10059.99966.99966,0,1,0-1.61132,1.1836A4.96456,4.96456,0,0,1,21,7.00586Z"></path><path d="M10.58594,9.7749a1.00007,1.00007,0,0,0-.20606,1.39893,6.96458,6.96458,0,0,0,3.51856,2.50537,1.00009,1.00009,0,0,0,.59961-1.9082,5.04283,5.04283,0,0,1-2.5127-1.79053A.99968.99968,0,0,0,10.58594,9.7749Z"></path><path d="M14.13281,2.29688a.98394.98394,0,0,0,.31055-.0503,5.06053,5.06053,0,0,1,3.08594-.0083A1,1,0,1,0,18.14062.334a7.05073,7.05073,0,0,0-4.31835.01221,1.00014,1.00014,0,0,0,.31054,1.95069Z"></path><path d="M16.95117,13.00879a.99993.99993,0,0,0,.94824.68408,1.01221,1.01221,0,0,0,.31641-.05176,7.06359,7.06359,0,0,0,3.47559-2.56543,1,1,0,0,0-1.625-1.166,5.05228,5.05228,0,0,1-2.4834,1.834A1.00027,1.00027,0,0,0,16.95117,13.00879Z"></path><path d="M18,42a5.00588,5.00588,0,0,0-5-5,4.81467,4.81467,0,0,0-1.43359.2168A3.99128,3.99128,0,0,0,4,39a4,4,0,0,0,0,8h9A5.00588,5.00588,0,0,0,18,42ZM2,43a2.00229,2.00229,0,0,1,2-2,1.97264,1.97264,0,0,1,.874.21484,1.00022,1.00022,0,0,0,1.34082-1.34277A1.96146,1.96146,0,0,1,6,39a1.99415,1.99415,0,0,1,3.96973-.27734,1.00018,1.00018,0,0,0,1.50488.71435A2.93333,2.93333,0,0,1,13,39a3,3,0,0,1,0,6H4A2.00229,2.00229,0,0,1,2,43Z"></path><path d="M25,56a3.99128,3.99128,0,0,0-7.56641-1.7832A4.81467,4.81467,0,0,0,16,54a5,5,0,0,0,0,10h9a4,4,0,0,0,0-8Zm0,6H16a3,3,0,0,1,0-6,2.93333,2.93333,0,0,1,1.52539.437,1.00018,1.00018,0,0,0,1.50488-.71435A1.99415,1.99415,0,0,1,23,56a1.96146,1.96146,0,0,1-.21484.87207A1.00022,1.00022,0,0,0,24.126,58.21484,1.97264,1.97264,0,0,1,25,58a2,2,0,0,1,0,4Z"></path><path d="M43,22a3,3,0,1,0,3,3A3.00328,3.00328,0,0,0,43,22Zm0,4a1,1,0,1,1,1-1A1.001,1.001,0,0,1,43,26Z"></path><path d="M42,7.99316a2.91555,2.91555,0,0,0,3-3A.99435.99435,0,0,0,44.0127,4H44a1.00587,1.00587,0,0,0-1,.98145.91831.91831,0,0,1-1,1.01171,1,1,0,0,0,0,2Z"></path><path d="M37,13a4.55543,4.55543,0,0,0,2.55273,3.89453,1.00318,1.00318,0,0,0,1.1543-.1875l.293-.293,1.293,1.293a.99963.99963,0,0,0,1.41406,0L45,16.41406l.293.293a1.0003,1.0003,0,0,0,1.1543.1875A4.55543,4.55543,0,0,0,49,13a3.00328,3.00328,0,0,0,3-3c0-2-2-2.93848-2-3A7,7,0,0,0,36,7c0,.06152-2,1-2,3A3.00328,3.00328,0,0,0,37,13Zm9.13477,1.72119L45.707,14.293a.99962.99962,0,0,0-1.41406,0L43,15.58594l-1.293-1.293a.99963.99963,0,0,0-1.41406,0l-.42676.42676a2.5502,2.5502,0,0,1-.80273-1.31592A6.56449,6.56449,0,0,1,43,12a6.63055,6.63055,0,0,1,3.93848,1.40967A2.51945,2.51945,0,0,1,46.13477,14.72119ZM49,11V9a1,1,0,0,1,0,2ZM43,1.99316a4.98715,4.98715,0,0,1,4.24054,2.38251A.99155.99155,0,0,0,47,4.98145a.91831.91831,0,0,1-1,1.01171,1,1,0,0,0,0,2,3.25341,3.25341,0,0,0,1-.162v3.23126a8.01631,8.01631,0,0,0-8,0V7.83118a2.961,2.961,0,0,0,2-2.838A.99435.99435,0,0,0,40.0127,4H40a1.00587,1.00587,0,0,0-1,.98145.91117.91117,0,0,1-.89734,1.0025A5.00864,5.00864,0,0,1,43,1.99316ZM37,9v2a1,1,0,0,1,0-2Z"></path><path d="M29.168,31.55469A1,1,0,1,0,30.832,30.44531l-1.75488-2.63183,1.81347-7.2544,5.75-4.791a1.00016,1.00016,0,1,0-1.28124-1.53614l-6,5a.99959.99959,0,0,0-.32911.52539l-2,8a1.00008,1.00008,0,0,0,.1377.79737Z"></path><path d="M49.23145,14.35986a1.00019,1.00019,0,0,0,.12793,1.40821l5.75,4.791,1.81347,7.2544L55.168,30.44531A1,1,0,1,0,56.832,31.55469l2-3a1.00008,1.00008,0,0,0,.1377-.79737l-2-8a.99959.99959,0,0,0-.32911-.52539l-6-5A1.00124,1.00124,0,0,0,49.23145,14.35986Z"></path><path d="M63.44727,49.10547l-4-2a1.007,1.007,0,0,0-.81836-.03418L54,48.92285l-4.62891-1.85156a1.00465,1.00465,0,0,0-.74218,0l-4.583,1.8335-3.59863-1.79932a1.00109,1.00109,0,0,0-.89454,0L36,48.88184l-3.55273-1.77637a1.00254,1.00254,0,0,0-1.002.0625L29.208,48.65918,27.08105,46H63a1,1,0,0,0,0-2H58.91412A4.88828,4.88828,0,0,0,60,41a5.13118,5.13118,0,0,0-5-5H43.21973A2.98179,2.98179,0,0,0,41,35H53a.99974.99974,0,0,0,1-1V31a.99974.99974,0,0,0-1-1H52V21a2.00229,2.00229,0,0,0-2-2H36a2.00229,2.00229,0,0,0-2,2v9H33a.99974.99974,0,0,0-1,1v3a.99974.99974,0,0,0,1,1h6a.99974.99974,0,0,0-1,1v8H31a3,3,0,0,1,0-6h4a1,1,0,0,0,0-2H31a5.13118,5.13118,0,0,0-5,5,4.88828,4.88828,0,0,0,1.08588,3H25a1.00014,1.00014,0,0,0-.78125,1.62451l4,5a.99959.99959,0,0,0,1.33594.20752l.636-.424,1.8191,12.73352A1.00028,1.00028,0,0,0,32.999,64a1.01137,1.01137,0,0,0,.14258-.01025.99987.99987,0,0,0,.84863-1.13135L32.03589,49.178l.03638-.02423,3.48046,1.74072a1.00109,1.00109,0,0,0,.89454,0L40,49.11816l3.55273,1.77637a.99585.99585,0,0,0,.81836.03418L49,49.07715l4.62891,1.85156a1.00465,1.00465,0,0,0,.74218,0l4.583-1.8335,3.59863,1.79932a1.00046,1.00046,0,0,0,1.3418-.44726A.94551.94551,0,0,0,64,50,1.01871,1.01871,0,0,0,63.44727,49.10547ZM36,21H50v9H36ZM34,33V32H52v1Zm21,5a3,3,0,0,1,0,6H44V38ZM40,37h1a1.001,1.001,0,0,1,1,1v6H40Z"></path><path d="M47,56H45a1,1,0,0,0,0,2h2a1,1,0,0,0,0-2Z"></path><path d="M57,56H51a1,1,0,0,0,0,2h6a1,1,0,0,0,0-2Z"></path><path d="M51,60H49a1,1,0,0,0,0,2h2a1,1,0,0,0,0-2Z"></path><path d="M45,60H39a1,1,0,0,0,0,2h6a1,1,0,0,0,0-2Z"></path><path d="M49,54h2a1,1,0,0,0,0-2H49a1,1,0,0,0,0,2Z"></path><path d="M39,54h6a1,1,0,0,0,0-2H39a1,1,0,0,0,0,2Z"></path><path d="M19.32715,20.26025l-11,10a1,1,0,1,0,1.3457,1.4795l10.29395-9.3584L24.293,26.707A.99989.99989,0,0,0,25.707,25.293l-5-5A1.00031,1.00031,0,0,0,19.32715,20.26025Z"></path><path d="M1.64062,22.76807,7.04688,18.2627,13.419,22.814a1.00008,1.00008,0,0,0,1.1621-1.62792l-7-5a1.00032,1.00032,0,0,0-1.22167.04589l-6,5A.97242.97242,0,0,0,0,22a1.03115,1.03115,0,0,0,.23145.64014A.99984.99984,0,0,0,1.64062,22.76807Z"></path></g></svg>