<svg height='100px' width='100px'  fill="#000000" xmlns="http://www.w3.org/2000/svg" xmlns:xlink="http://www.w3.org/1999/xlink" version="1.1" x="0px" y="0px" viewBox="0 0 100 100" enable-background="new 0 0 100 100" xml:space="preserve"><path d="M7.188,40.463c20.558,0,41.119,0,61.677,0c2.37,0,2.37-3.671,0-3.671c-20.558,0-41.119,0-61.677,0  C4.817,36.793,4.817,40.463,7.188,40.463L7.188,40.463z"></path><path d="M2.534,50.919c19.01,0,38.021,0,57.029,0c2.276,0,2.276-3.531,0-3.531c-19.008,0-38.02,0-57.029,0  C0.26,47.388,0.26,50.919,2.534,50.919L2.534,50.919z"></path><path d="M13.795,61.268c20.559,0,41.119,0,61.678,0c2.368,0,2.368-3.67,0-3.67c-20.559,0-41.119,0-61.678,0  C11.428,57.596,11.428,61.268,13.795,61.268L13.795,61.268z"></path><path d="M71.068,20.271c8.907,0,16.154,7.247,16.154,16.154c0,0.508-0.052,0.958-0.117,1.367c6.42,2.211,10.888,8.319,10.888,15.275  c0,8.909-7.247,16.155-16.155,16.155c-0.514,0-1.027-0.023-1.539-0.072c-1.185,7.695-7.718,13.411-15.838,13.411  c-7.642,0-14.298-5.426-15.826-12.901c-0.228-1.126,0.496-2.226,1.622-2.456c1.123-0.227,2.229,0.496,2.458,1.624  c1.133,5.547,6.073,9.571,11.749,9.571c6.655,0,11.867-5.174,11.867-11.777c0-0.69,0.342-1.337,0.915-1.726  c0.571-0.386,1.298-0.465,1.939-0.209l0.41,0.164c0.735,0.139,1.489,0.21,2.244,0.21c6.612,0,11.992-5.38,11.992-11.994  c0-5.718-4.064-10.666-9.664-11.767c-0.617-0.12-1.145-0.516-1.439-1.067c-0.293-0.557-0.32-1.215-0.073-1.793l0.177-0.414  c0.022-0.124,0.048-0.246,0.07-0.367c0.091-0.468,0.162-0.838,0.162-1.234c0-6.613-5.379-11.992-11.992-11.992  c-4.884,0-9.239,2.916-11.099,7.434c-0.436,1.063-1.652,1.571-2.715,1.134c-1.063-0.438-1.571-1.653-1.134-2.716  C58.623,24.201,64.49,20.271,71.068,20.271z"></path></svg>