<svg height='100px' width='100px'  fill="#000000" xmlns="http://www.w3.org/2000/svg" xmlns:xlink="http://www.w3.org/1999/xlink" version="1.1" x="0px" y="0px" viewBox="0 0 64 64" enable-background="new 0 0 64 64" xml:space="preserve"><path d="M54.306,47.048l-0.611,1.904C58.337,50.44,61,52.28,61,54c0,3.784-11.91,8-29,8c-17.09,0-29-4.216-29-8  c0-1.72,2.663-3.56,7.305-5.048l-0.61-1.904C3.925,48.897,1,51.236,1,54c0,6.495,15.972,10,31,10c15.028,0,31-3.505,31-10  C63,51.236,60.074,48.897,54.306,47.048z"></path><rect x="27" y="53" width="2" height="2"></rect><rect x="31" y="53" width="2" height="2"></rect><rect x="35" y="53" width="2" height="2"></rect><path d="M12.938,54.349L14.924,49h2.681l4.868-9.293c2.094,1.07,4.321,1.771,6.648,2.088C29.472,43.063,30.623,44,32,44  s2.528-0.938,2.879-2.205c2.327-0.317,4.554-1.018,6.647-2.088L46.395,49h2.682l1.986,5.349l1.875-0.697L40.06,18.98  C40.656,17.779,41,16.43,41,15c0-3.909-2.51-7.235-6-8.475V3c0-0.8-0.312-1.554-0.878-2.121c-1.133-1.134-3.11-1.134-4.243,0  C29.312,1.445,29,2.199,29,3v3.525c-3.49,1.239-6,4.565-6,8.475c0,1.43,0.344,2.778,0.94,3.98L11.063,53.651L12.938,54.349z M32,42  c-0.551,0-1-0.448-1-1s0.449-1,1-1c0.552,0,1,0.448,1,1S32.552,42,32,42z M34.744,39.797C34.279,38.741,33.227,38,32,38  c-1.226,0-2.279,0.741-2.744,1.797c-2.047-0.295-4.008-0.92-5.855-1.862L28.605,28h6.79l5.204,9.935  C38.752,38.877,36.791,39.502,34.744,39.797z M48.333,47h-0.728l-11-21H33v-2.059c2.248-0.25,4.242-1.334,5.68-2.931L48.333,47z   M31,3c0-0.267,0.104-0.518,0.293-0.707c0.378-0.378,1.036-0.377,1.413,0C32.896,2.482,33,2.733,33,3v3.059  C32.671,6.022,32.338,6,32,6s-0.671,0.022-1,0.059V3z M32,8c3.859,0,7,3.14,7,7s-3.141,7-7,7c-3.86,0-7-3.14-7-7S28.14,8,32,8z   M31,23.941V26h-3.605l-11,21h-0.728l9.653-25.99C26.758,22.607,28.752,23.691,31,23.941z"></path><path d="M32,19c2.206,0,4-1.794,4-4s-1.794-4-4-4c-2.206,0-4,1.794-4,4S29.794,19,32,19z M32,13c1.103,0,2,0.897,2,2s-0.897,2-2,2  c-1.103,0-2-0.897-2-2S30.897,13,32,13z"></path><path d="M53,21h-2c0,4.15-1.313,8.091-3.8,11.399l1.6,1.201C51.548,29.944,53,25.586,53,21z"></path></svg>